PathFileType	4	(X/Y/Z)	C:/Users/beibeiliu/ov580/test_trc/User3\sequence.40_training_dense_right.trc
DataRate	CameraRate	NumFrames	NumMarkers	Units	OrigDataRate	OrigDataStartFrame	OrigNumFrames
120	120	8	19	mm	120	72	287
Frame#	Time	ThumbCMC			ThumbMCP			ThumbIP			ThumbTip			IndexMCP			IndexPIP			IndexTip			MiddleMCP			MiddlePIP			MiddleTip			RingMCP			RingPIP			RingTip			PinkyMCP			PinkyPIP			PinkyTip			BackHand1			BackHand2			BackHand3	
		X0	Y0	Z0	X1	Y1	Z1	X2	Y2	Z2	X3	Y3	Z3	X4	Y4	Z4	X5	Y5	Z5	X6	Y6	Z6	X7	Y7	Z7	X8	Y8	Z8	X9	Y9	Z9	X10	Y10	Z10	X11	Y11	Z11	X12	Y12	Z12	X13	Y13	Z13	X14	Y14	Z14	X15	Y15	Z15	X16	Y16	Z16	X17	Y17	Z17	X18	Y18	Z18	
71	0.591667	128.423	0.104414	28.1955	110.479	15.6053	4.48378	93.4345	17.7645	-22.9765	77.5854	18.7362	-43.0033	123.553	-16.9775	-45.3152	99.739	-4.63401	-63.8527	80.6972	15.2572	-62.64	120.325	-38.0827	-51.4734	108.084	-30.8021	-74.9123	78.3998	-12.0829	-92.597	107.725	-52.9262	-38.4269	92.4079	-51.4895	-61.2099	68.7134	-32.7647	-77.2914	92.0781	-63.8083	-19.2316	81.6733	-62.0637	-41.5173	63.2099	-51.0693	-54.1484	124.539	-61.4798	13.2428	129.496	-59.1187	44.439	144.964	-32.6938	25.068	
72	0.6	128.544	0.140671	32.1435	109.004	13.2005	2.34799	93.1112	16.7247	-22.9466	76.875	14.8691	-40.8219	122.569	-17.4694	-42.1047	97.4678	-1.45771	-62.6681	74.5777	15.8806	-57.095	118.38	-37.4983	-49.803	102.386	-30.1767	-75.0038	78.4742	-11.107	-89.0072	108.29	-51.7612	-36.399	93.0338	-45.3181	-63.6398	66.2984	-33.4546	-74.4103	93.606	-62.0087	-18.771	78.5092	-58.5558	-43.6226	57.0834	-48.6261	-56.2037	125.097	-60.5155	12.8149	128.416	-61.7139	39.1224	146.18	-31.1864	19.9368	
73	0.608333	128.087	-0.0343981	28.4623	108.923	17.0268	4.70187	91.6821	17.5138	-20.1095	77.1035	15.6123	-38.4562	121.599	-14.1563	-43.5212	100.311	3.46716	-60.9424	76.2497	18.1419	-56.8464	118.139	-35.2657	-49.3565	102.461	-27.6124	-71.6102	75.162	-8.92321	-86.1179	108.432	-49.8841	-36.0801	90.1379	-47.5927	-63.2297	66.1492	-31.7702	-73.6602	91.8623	-62.7155	-19.1857	75.6186	-61.4008	-41.5554	56.016	-47.3913	-56.2882	124.888	-57.1295	10.3437	129.798	-59.2528	41.9451	146.033	-30.6171	23.4227	
74	0.616667	126.848	0.482451	30.2616	107.108	13.1971	3.42248	91.221	17.8445	-19.0144	75.4322	14.5024	-37.9536	121.248	-13.207	-42.8368	97.8962	3.03423	-61.1798	73.8261	15.7172	-55.2195	116.493	-33.8138	-49.5133	97.7779	-26.3618	-72.7709	72.6423	-10.0436	-84.6112	107.763	-50.5261	-35.826	87.5692	-44.7387	-63.9578	67.6663	-32.0652	-72.9609	91.6847	-62.4438	-19.524	74.9222	-59.1513	-43.4467	57.4131	-44.1432	-55.1771	123.15	-59.6983	9.57454	129.339	-59.3207	42.6086	145.857	-31.8046	19.5181	
75	0.625	127.821	1.08894	29.1351	108.449	16.0903	5.96465	91.8639	21.3748	-18.1558	75.7414	19.9619	-40.9931	122.009	-13.3872	-44.8906	101.266	1.27876	-62.2363	78.4997	19.4967	-59.7103	119.337	-33.1593	-46.919	99.8715	-22.9388	-74.1017	69.5606	-4.91032	-84.4775	105.855	-50.6407	-40.8157	93.078	-44.4811	-61.8853	66.9342	-29.1165	-72.0865	92.0097	-62.4504	-18.7053	77.3283	-62.0013	-40.0726	56.7248	-46.4377	-54.9266	123.067	-60.2034	9.9974	127.792	-59.5098	41.7506	148.087	-31.7894	19.7234	
76	0.633333	128.557	1.42327	29.8544	107.261	15.8156	0.946465	90.1317	20.7253	-19.9526	74.0149	23.0396	-39.127	125.644	-17.7795	-42.774	108.539	0.0110836	-66.1672	78.7576	16.1228	-65.8022	119.413	-33.6119	-49.5523	99.6017	-24.356	-74.3171	73.3753	-3.32457	-81.2992	108.17	-48.581	-38.0148	89.4488	-43.1612	-64.749	66.86	-27.0942	-71.477	93.5089	-61.0671	-19.9248	79.5495	-62.0245	-41.6265	60.4842	-45.2555	-57.6728	124.293	-57.0102	13.9751	127.838	-62.6981	38.5246	146.781	-33.162	24.543	
77	0.641667	128.747	1.63642	28.0054	105.27	12.4247	4.96377	89.0067	19.804	-19.4112	71.0866	19.5014	-38.4047	128.017	-16.0324	-48.3774	108.911	-3.96609	-67.9932	83.0763	10.4825	-71.428	117	-35.3797	-50.2669	100.264	-21.7782	-72.5516	68.1945	-2.89606	-73.5232	104.614	-52.7942	-42.3436	91.6323	-42.2784	-62.8168	68.259	-25.0501	-69.6928	91.2558	-65.3581	-19.0954	77.857	-63.9308	-43.0698	58.5938	-46.687	-56.6304	122.74	-57.9812	10.6095	125.235	-62.0764	38.4374	144.062	-35.605	21.6002	
78	0.65	129.021	1.33846	29.4483	104.99	13.7034	5.9177	85.4685	17.4602	-24.3542	68.7719	9.90676	-39.2608	127.004	-18.8252	-43.3321	110.996	-4.17645	-68.8074	84.4107	9.7152	-72.6114	116.839	-35.7986	-46.7228	93.3819	-24.0283	-69.3894	66.2952	0.349904	-62.8362	104.324	-52.4824	-40.0019	85.3849	-44.1572	-62.5229	63.6342	-22.6367	-63.0464	93.3216	-65.7826	-21.9318	81.2061	-66.3918	-41.8885	65.604	-49.8881	-58.2103	125.332	-59.4411	11.5747	130.936	-60.4575	41.1299	145.269	-35.2707	20.3956	
